{
  "accessors": [
    {
      "bufferView": 2,
      "componentType": 5126,
      "count": 7686,
      "max": [0.5342919826507568, 0.24059000611305237, 0.3398819863796234],
      "min": [-0.5342919826507568, -0.24059000611305237, -0.3398819863796234],
      "type": "VEC3"
    },
    {
      "bufferView": 2,
      "byteOffset": 92232,
      "componentType": 5126,
      "count": 7686,
      "max": [0.9980617761611938, 0.9999944567680359, 0.9994899034500122],
      "min": [-0.9927751421928406, -0.9998482465744019, -0.9999785423278809],
      "type": "VEC3"
    },
    {
      "bufferView": 3,
      "componentType": 5126,
      "count": 7686,
      "max": [0.8027026653289795, 0.9999942779541016, 0.9991870522499084, 1.0],
      "min": [
        -0.9772656559944153,
        -0.999983549118042,
        -0.6611539721488953,
        1.0
      ],
      "type": "VEC4"
    },
    {
      "bufferView": 1,
      "componentType": 5126,
      "count": 7686,
      "max": [0.9999420046806335, 0.7697229981422424],
      "min": [1.2000000424450263e-5, 5.8000001445179805e-5],
      "type": "VEC2"
    },
    {
      "bufferView": 0,
      "componentType": 5125,
      "count": 45018,
      "type": "SCALAR"
    }
  ],
  "asset": {
    "extras": {
      "author": "Andrea Spognetta (Spogna) (https://sketchfab.com/spogna)",
      "license": "CC-BY-4.0 (http://creativecommons.org/licenses/by/4.0/)",
      "source": "https://sketchfab.com/3d-models/rock-stone-14-rawscan-3b8de09bc6344f46a493d86e4e4d9678",
      "title": "Rock Stone 14 .::RAWscan::."
    },
    "generator": "Sketchfab-10.51.0",
    "version": "2.0"
  },
  "bufferViews": [
    {
      "buffer": 0,
      "byteLength": 180072,
      "name": "floatBufferViews",
      "target": 34963
    },
    {
      "buffer": 0,
      "byteLength": 61488,
      "byteOffset": 180072,
      "byteStride": 8,
      "name": "floatBufferViews",
      "target": 34962
    },
    {
      "buffer": 0,
      "byteLength": 184464,
      "byteOffset": 241560,
      "byteStride": 12,
      "name": "floatBufferViews",
      "target": 34962
    },
    {
      "buffer": 0,
      "byteLength": 122976,
      "byteOffset": 426024,
      "byteStride": 16,
      "name": "floatBufferViews",
      "target": 34962
    }
  ],
  "buffers": [
    {
      "byteLength": 549000,
      "uri": "scene.bin"
    }
  ],
  "images": [
    {
      "uri": "textures/material_0_baseColor_web.jpg"
    },
    {
      "uri": "textures/material_0_metallicRoughness_web.jpg"
    },
    {
      "uri": "textures/material_0_normal_web.jpg"
    }
  ],
  "materials": [
    {
      "doubleSided": true,
      "name": "material_0",
      "normalTexture": {
        "index": 2
      },
      "occlusionTexture": {
        "index": 1
      },
      "pbrMetallicRoughness": {
        "baseColorTexture": {
          "index": 0
        },
        "metallicFactor": 0.2,
        "metallicRoughnessTexture": {
          "index": 1
        },
        "roughnessFactor": 1
      }
    }
  ],
  "meshes": [
    {
      "name": "Object_0",
      "primitives": [
        {
          "attributes": {
            "NORMAL": 1,
            "POSITION": 0,
            "TANGENT": 2,
            "TEXCOORD_0": 3
          },
          "indices": 4,
          "material": 0,
          "mode": 4
        }
      ]
    }
  ],
  "nodes": [
    {
      "children": [1],
      "matrix": [
        1.0,
        0.0,
        0.0,
        0.0,
        0.0,
        -1.0,
        -4.440892098500626e-16,
        0.0,
        0.0,
        4.440892098500626e-16,
        -1.0,
        0.0,
        0.0,
        -1.192092895507812e-7,
        -2.0861625671386721e-7,
        1.0
      ],
      "name": "Sketchfab_model"
    },
    {
      "children": [2],
      "name": "sasso14.obj.cleaner.materialmerger.gles"
    },
    {
      "mesh": 0,
      "name": "Object_2"
    }
  ],
  "samplers": [
    {
      "magFilter": 9729,
      "minFilter": 9987,
      "wrapS": 10497,
      "wrapT": 10497
    }
  ],
  "scene": 0,
  "scenes": [
    {
      "name": "Sketchfab_Scene",
      "nodes": [0]
    }
  ],
  "textures": [
    {
      "sampler": 0,
      "source": 0
    },
    {
      "sampler": 0,
      "source": 1
    },
    {
      "sampler": 0,
      "source": 2
    }
  ]
}
