{
  "accessors": [
    {
      "bufferView": 2,
      "componentType": 5126,
      "count": 27,
      "max": [27.09789276123047, 147.1291961669922, 23.236324310302734],
      "min": [-33.43581008911133, -152.45249938964844, -31.19387435913086],
      "type": "VEC3"
    },
    {
      "bufferView": 2,
      "byteOffset": 324,
      "componentType": 5126,
      "count": 27,
      "max": [-0.13091687858104706, 0.05617373064160347, -0.3898709714412689],
      "min": [-0.9203168749809265, -0.08934303373098373, -0.991326093673706],
      "type": "VEC3"
    },
    {
      "bufferView": 3,
      "componentType": 5126,
      "count": 27,
      "max": [
        -0.36413106322288513,
        0.4603536128997803,
        0.9205223917961121,
        1.0
      ],
      "min": [
        -0.9913371801376343,
        -0.5086877942085266,
        0.11706038564443588,
        1.0
      ],
      "type": "VEC4"
    },
    {
      "bufferView": 1,
      "componentType": 5126,
      "count": 27,
      "max": [0.17471762001514435, 1.0],
      "min": [0.0, 0.0],
      "type": "VEC2"
    },
    {
      "bufferView": 1,
      "byteOffset": 216,
      "componentType": 5126,
      "count": 27,
      "max": [0.17471762001514435, 1.0],
      "min": [0.0, 0.0],
      "type": "VEC2"
    },
    {
      "bufferView": 1,
      "byteOffset": 432,
      "componentType": 5126,
      "count": 27,
      "max": [0.17471762001514435, 1.0],
      "min": [0.0, 0.0],
      "type": "VEC2"
    },
    {
      "bufferView": 0,
      "componentType": 5125,
      "count": 96,
      "type": "SCALAR"
    },
    {
      "bufferView": 2,
      "byteOffset": 648,
      "componentType": 5126,
      "count": 27,
      "max": [40.8244743347168, 157.6186981201172, 28.80316925048828],
      "min": [-22.05513572692871, -141.96299743652344, -21.725923538208008],
      "type": "VEC3"
    },
    {
      "bufferView": 2,
      "byteOffset": 972,
      "componentType": 5126,
      "count": 27,
      "max": [-0.10531508922576904, 0.09661668539047241, -0.3745918571949005],
      "min": [-0.926758348941803, -0.04902905970811844, -0.9944145083427429],
      "type": "VEC3"
    },
    {
      "bufferView": 3,
      "byteOffset": 432,
      "componentType": 5126,
      "count": 27,
      "max": [-0.3429340124130249, 0.4409172832965851, 0.9268684983253479, 1.0],
      "min": [-0.994428813457489, -0.4383969306945801, 0.1054106205701828, 1.0],
      "type": "VEC4"
    },
    {
      "bufferView": 1,
      "byteOffset": 648,
      "componentType": 5126,
      "count": 27,
      "max": [0.30522194504737854, 1.0],
      "min": [0.105671726167202, 0.0],
      "type": "VEC2"
    },
    {
      "bufferView": 1,
      "byteOffset": 864,
      "componentType": 5126,
      "count": 27,
      "max": [0.30522194504737854, 1.0],
      "min": [0.105671726167202, 0.0],
      "type": "VEC2"
    },
    {
      "bufferView": 1,
      "byteOffset": 1080,
      "componentType": 5126,
      "count": 27,
      "max": [0.30522194504737854, 1.0],
      "min": [0.105671726167202, 0.0],
      "type": "VEC2"
    },
    {
      "bufferView": 0,
      "byteOffset": 384,
      "componentType": 5125,
      "count": 96,
      "type": "SCALAR"
    },
    {
      "bufferView": 2,
      "byteOffset": 1296,
      "componentType": 5126,
      "count": 27,
      "max": [42.367889404296875, 153.53048706054688, 23.444442749023438],
      "min": [-19.333898544311523, -146.0512237548828, -22.36529541015625],
      "type": "VEC3"
    },
    {
      "bufferView": 2,
      "byteOffset": 1620,
      "componentType": 5126,
      "count": 27,
      "max": [-0.10383783280849457, 0.08742529153823853, -0.3773815631866455],
      "min": [-0.9259275197982788, -0.048844870179891586, -0.9944726228713989],
      "type": "VEC3"
    },
    {
      "bufferView": 3,
      "byteOffset": 864,
      "componentType": 5126,
      "count": 27,
      "max": [
        -0.34046298265457153,
        0.4994865953922272,
        0.9259404540061951,
        1.0
      ],
      "min": [
        -0.9945759773254395,
        -0.43707770109176636,
        0.10401302576065063,
        1.0
      ],
      "type": "VEC4"
    },
    {
      "bufferView": 1,
      "byteOffset": 1296,
      "componentType": 5126,
      "count": 27,
      "max": [0.43884003162384033, 1.0],
      "min": [0.24983347952365875, 0.0],
      "type": "VEC2"
    },
    {
      "bufferView": 1,
      "byteOffset": 1512,
      "componentType": 5126,
      "count": 27,
      "max": [0.43884003162384033, 1.0],
      "min": [0.24983347952365875, 0.0],
      "type": "VEC2"
    },
    {
      "bufferView": 1,
      "byteOffset": 1728,
      "componentType": 5126,
      "count": 27,
      "max": [0.43884003162384033, 1.0],
      "min": [0.24983347952365875, 0.0],
      "type": "VEC2"
    },
    {
      "bufferView": 0,
      "byteOffset": 768,
      "componentType": 5125,
      "count": 96,
      "type": "SCALAR"
    },
    {
      "bufferView": 2,
      "byteOffset": 1944,
      "componentType": 5126,
      "count": 27,
      "max": [33.71828079223633, 149.93508911132813, 23.940876007080078],
      "min": [-22.759292602539063, -149.64659118652344, -28.395511627197266],
      "type": "VEC3"
    },
    {
      "bufferView": 2,
      "byteOffset": 2268,
      "componentType": 5126,
      "count": 27,
      "max": [-0.10464984178543091, 0.08652340620756149, -0.3826181888580322],
      "min": [-0.9236384630203247, -0.060522012412548065, -0.9943448305130005],
      "type": "VEC3"
    },
    {
      "bufferView": 3,
      "byteOffset": 1296,
      "componentType": 5126,
      "count": 27,
      "max": [
        -0.3582051992416382,
        0.47697266936302185,
        0.9236971139907837,
        1.0
      ],
      "min": [
        -0.9944854974746704,
        -0.4455150067806244,
        0.10129889100790024,
        1.0
      ],
      "type": "VEC4"
    },
    {
      "bufferView": 1,
      "byteOffset": 1944,
      "componentType": 5126,
      "count": 27,
      "max": [0.5790666341781616, 1.0],
      "min": [0.3866177499294281, 0.0],
      "type": "VEC2"
    },
    {
      "bufferView": 1,
      "byteOffset": 2160,
      "componentType": 5126,
      "count": 27,
      "max": [0.5790666341781616, 1.0],
      "min": [0.3866177499294281, 0.0],
      "type": "VEC2"
    },
    {
      "bufferView": 1,
      "byteOffset": 2376,
      "componentType": 5126,
      "count": 27,
      "max": [0.5790666341781616, 1.0],
      "min": [0.3866177499294281, 0.0],
      "type": "VEC2"
    },
    {
      "bufferView": 0,
      "byteOffset": 1152,
      "componentType": 5125,
      "count": 96,
      "type": "SCALAR"
    },
    {
      "bufferView": 2,
      "byteOffset": 2592,
      "componentType": 5126,
      "count": 27,
      "max": [36.11915969848633, 140.3311004638672, 28.487422943115234],
      "min": [-13.608919143676758, -145.4698486328125, -26.83914566040039],
      "type": "VEC3"
    },
    {
      "bufferView": 2,
      "byteOffset": 2916,
      "componentType": 5126,
      "count": 27,
      "max": [0.97992342710495, 0.05821618810296059, -0.19907329976558685],
      "min": [0.11372708529233932, -0.1013668030500412, -0.9933266639709473],
      "type": "VEC3"
    },
    {
      "bufferView": 3,
      "byteOffset": 1728,
      "componentType": 5126,
      "count": 27,
      "max": [
        -0.19932755827903748,
        0.40390270948410034,
        -0.10989789664745331,
        1.0
      ],
      "min": [
        -0.9934755563735962,
        -0.44001299142837524,
        -0.979932963848114,
        1.0
      ],
      "type": "VEC4"
    },
    {
      "bufferView": 1,
      "byteOffset": 2592,
      "componentType": 5126,
      "count": 27,
      "max": [0.7154853343963623, 1.0],
      "min": [0.5121168494224548, 0.0],
      "type": "VEC2"
    },
    {
      "bufferView": 1,
      "byteOffset": 2808,
      "componentType": 5126,
      "count": 27,
      "max": [0.7154853343963623, 1.0],
      "min": [0.5121168494224548, 0.0],
      "type": "VEC2"
    },
    {
      "bufferView": 1,
      "byteOffset": 3024,
      "componentType": 5126,
      "count": 27,
      "max": [0.7154853343963623, 1.0],
      "min": [0.5121168494224548, 0.0],
      "type": "VEC2"
    },
    {
      "bufferView": 0,
      "byteOffset": 1536,
      "componentType": 5125,
      "count": 96,
      "type": "SCALAR"
    },
    {
      "bufferView": 2,
      "byteOffset": 3240,
      "componentType": 5126,
      "count": 27,
      "max": [31.616262435913086, 142.57183837890625, 24.39773178100586],
      "min": [-25.841678619384766, -155.21237182617188, -26.217403411865234],
      "type": "VEC3"
    },
    {
      "bufferView": 2,
      "byteOffset": 3564,
      "componentType": 5126,
      "count": 27,
      "max": [-0.10488446056842804, 0.08011297136545181, -0.3723284900188446],
      "min": [-0.9279572367668152, -0.0487542487680912, -0.9943637251853943],
      "type": "VEC3"
    },
    {
      "bufferView": 3,
      "byteOffset": 2160,
      "componentType": 5126,
      "count": 27,
      "max": [-0.3542323410511017, 0.4097119867801666, 0.9279611706733704, 1.0],
      "min": [
        -0.9944641590118408,
        -0.39713528752326965,
        0.10507646948099136,
        1.0
      ],
      "type": "VEC4"
    },
    {
      "bufferView": 1,
      "byteOffset": 3240,
      "componentType": 5126,
      "count": 27,
      "max": [0.839222252368927, 1.0],
      "min": [0.6685798168182373, 0.0],
      "type": "VEC2"
    },
    {
      "bufferView": 1,
      "byteOffset": 3456,
      "componentType": 5126,
      "count": 27,
      "max": [0.839222252368927, 1.0],
      "min": [0.6685798168182373, 0.0],
      "type": "VEC2"
    },
    {
      "bufferView": 1,
      "byteOffset": 3672,
      "componentType": 5126,
      "count": 27,
      "max": [0.839222252368927, 1.0],
      "min": [0.6685798168182373, 0.0],
      "type": "VEC2"
    },
    {
      "bufferView": 0,
      "byteOffset": 1920,
      "componentType": 5125,
      "count": 96,
      "type": "SCALAR"
    },
    {
      "bufferView": 2,
      "byteOffset": 3888,
      "componentType": 5126,
      "count": 27,
      "max": [37.74553680419922, 138.4668426513672, 34.264366149902344],
      "min": [-28.408004760742188, -172.19937133789063, -37.06475830078125],
      "type": "VEC3"
    },
    {
      "bufferView": 2,
      "byteOffset": 4212,
      "componentType": 5126,
      "count": 27,
      "max": [0.9989944696426392, 0.08048072457313538, -0.043414898216724396],
      "min": [0.13112398982048035, -0.1092519611120224, -0.9910708665847778],
      "type": "VEC3"
    },
    {
      "bufferView": 3,
      "byteOffset": 2592,
      "componentType": 5126,
      "count": 27,
      "max": [
        -0.04357362911105156,
        0.3395959734916687,
        -0.13165028393268585,
        1.0
      ],
      "min": [
        -0.9912962317466736,
        -0.3490261137485504,
        -0.9990502595901489,
        1.0
      ],
      "type": "VEC4"
    },
    {
      "bufferView": 1,
      "byteOffset": 3888,
      "componentType": 5126,
      "count": 27,
      "max": [1.0, 1.0],
      "min": [0.8160576820373535, 0.0],
      "type": "VEC2"
    },
    {
      "bufferView": 1,
      "byteOffset": 4104,
      "componentType": 5126,
      "count": 27,
      "max": [1.0, 1.0],
      "min": [0.8160576820373535, 0.0],
      "type": "VEC2"
    },
    {
      "bufferView": 1,
      "byteOffset": 4320,
      "componentType": 5126,
      "count": 27,
      "max": [1.0, 1.0],
      "min": [0.8160576820373535, 0.0],
      "type": "VEC2"
    },
    {
      "bufferView": 0,
      "byteOffset": 2304,
      "componentType": 5125,
      "count": 96,
      "type": "SCALAR"
    }
  ],
  "asset": {
    "extras": {
      "author": "davideformentiarranz (https://sketchfab.com/davideformentiarranz)",
      "license": "CC-BY-4.0 (http://creativecommons.org/licenses/by/4.0/)",
      "source": "https://sketchfab.com/3d-models/piume-fbx-9632d1ba99704d55bedc14226f1d8beb",
      "title": "Piume Fbx"
    },
    "generator": "Sketchfab-12.56.0",
    "version": "2.0"
  },
  "bufferViews": [
    {
      "buffer": 0,
      "byteLength": 2688,
      "name": "floatBufferViews",
      "target": 34963
    },
    {
      "buffer": 0,
      "byteLength": 4536,
      "byteOffset": 2688,
      "byteStride": 8,
      "name": "floatBufferViews",
      "target": 34962
    },
    {
      "buffer": 0,
      "byteLength": 4536,
      "byteOffset": 7224,
      "byteStride": 12,
      "name": "floatBufferViews",
      "target": 34962
    },
    {
      "buffer": 0,
      "byteLength": 3024,
      "byteOffset": 11760,
      "byteStride": 16,
      "name": "floatBufferViews",
      "target": 34962
    }
  ],
  "buffers": [
    {
      "byteLength": 14784,
      "uri": "scene.bin"
    }
  ],
  "images": [
    {
      "uri": "textures/diffuse.png"
    },
    {
      "uri": "textures/normal_web.jpg"
    }
  ],
  "materials": [
    {
      "alphaMode": "BLEND",
      "doubleSided": true,
      "name": "Nuovo.1",
      "normalTexture": {
        "index": 1
      },
      "pbrMetallicRoughness": {
        "baseColorTexture": {
          "index": 0
        },
        "metallicFactor": 0.0,
        "roughnessFactor": 0.9524317153998911
      }
    }
  ],
  "meshes": [
    {
      "name": "Plane_1_Nuovo.1_0",
      "primitives": [
        {
          "attributes": {
            "NORMAL": 1,
            "POSITION": 0,
            "TANGENT": 2,
            "TEXCOORD_0": 3,
            "TEXCOORD_1": 4,
            "TEXCOORD_2": 5
          },
          "indices": 6,
          "material": 0,
          "mode": 4
        }
      ]
    },
    {
      "name": "Plane_2_Nuovo.1_0",
      "primitives": [
        {
          "attributes": {
            "NORMAL": 8,
            "POSITION": 7,
            "TANGENT": 9,
            "TEXCOORD_0": 10,
            "TEXCOORD_1": 11,
            "TEXCOORD_2": 12
          },
          "indices": 13,
          "material": 0,
          "mode": 4
        }
      ]
    },
    {
      "name": "Plane_3_2_Nuovo.1_0",
      "primitives": [
        {
          "attributes": {
            "NORMAL": 15,
            "POSITION": 14,
            "TANGENT": 16,
            "TEXCOORD_0": 17,
            "TEXCOORD_1": 18,
            "TEXCOORD_2": 19
          },
          "indices": 20,
          "material": 0,
          "mode": 4
        }
      ]
    },
    {
      "name": "Plane_4_2_Nuovo.1_0",
      "primitives": [
        {
          "attributes": {
            "NORMAL": 22,
            "POSITION": 21,
            "TANGENT": 23,
            "TEXCOORD_0": 24,
            "TEXCOORD_1": 25,
            "TEXCOORD_2": 26
          },
          "indices": 27,
          "material": 0,
          "mode": 4
        }
      ]
    },
    {
      "name": "Plane_5_2_Nuovo.1_0",
      "primitives": [
        {
          "attributes": {
            "NORMAL": 29,
            "POSITION": 28,
            "TANGENT": 30,
            "TEXCOORD_0": 31,
            "TEXCOORD_1": 32,
            "TEXCOORD_2": 33
          },
          "indices": 34,
          "material": 0,
          "mode": 4
        }
      ]
    },
    {
      "name": "Plane_6_Nuovo.1_0",
      "primitives": [
        {
          "attributes": {
            "NORMAL": 36,
            "POSITION": 35,
            "TANGENT": 37,
            "TEXCOORD_0": 38,
            "TEXCOORD_1": 39,
            "TEXCOORD_2": 40
          },
          "indices": 41,
          "material": 0,
          "mode": 4
        }
      ]
    },
    {
      "name": "Plane_7_2_Nuovo.1_0",
      "primitives": [
        {
          "attributes": {
            "NORMAL": 43,
            "POSITION": 42,
            "TANGENT": 44,
            "TEXCOORD_0": 45,
            "TEXCOORD_1": 46,
            "TEXCOORD_2": 47
          },
          "indices": 48,
          "material": 0,
          "mode": 4
        }
      ]
    }
  ],
  "nodes": [
    {
      "children": [1],
      "matrix": [
        1.0,
        0.0,
        0.0,
        0.0,
        0.0,
        2.220446049250313e-16,
        -1.0,
        0.0,
        0.0,
        1.0,
        2.220446049250313e-16,
        0.0,
        0.0,
        0.0,
        0.0,
        1.0
      ],
      "name": "Sketchfab_model"
    },
    {
      "children": [2],
      "matrix": [
        0.009999999776482582,
        0.0,
        0.0,
        0.0,
        0.0,
        0.0,
        0.009999999776482582,
        0.0,
        0.0,
        -0.009999999776482582,
        0.0,
        0.0,
        0.0,
        0.0,
        0.0,
        1.0
      ],
      "name": "313da0e8283f49a9af6b6ea55fec625f.fbx"
    },
    {
      "children": [3, 6, 9, 13, 17, 21, 24],
      "name": "RootNode"
    },
    {
      "children": [4],
      "name": "Superficie_di_Suddivisione_6"
    },
    {
      "children": [5],
      "matrix": [
        0.41623681156931447,
        0.8577579367036191,
        -0.30165914326696774,
        0.0,
        -0.6945390153203955,
        0.5140538123795504,
        0.5033529916230015,
        0.0,
        0.5868240561636736,
        -5.551115123125783e-17,
        0.8097144725813005,
        0.0,
        40.47157669067383,
        118.80011749267578,
        124.77313232421875,
        1.0
      ],
      "name": "Plane_1"
    },
    {
      "mesh": 0,
      "name": "Plane_1_Nuovo.1_0"
    },
    {
      "children": [7],
      "name": "Superficie_di_Suddivisione_5"
    },
    {
      "children": [8],
      "matrix": [
        0.9643987363452085,
        0.038200773947913054,
        0.2616787691150077,
        0.0,
        0.033996944702004976,
        0.9633919419653707,
        -0.26593264919358944,
        0.0,
        -0.2622580505660291,
        0.2653613894785229,
        0.9277952618370788,
        0.0,
        128.32518005371094,
        139.7014923095703,
        135.58859252929688,
        1.0
      ],
      "name": "Plane_2"
    },
    {
      "mesh": 1,
      "name": "Plane_2_Nuovo.1_0"
    },
    {
      "children": [10],
      "name": "Superficie_di_Suddivisione_4"
    },
    {
      "children": [11],
      "matrix": [
        -0.8341912534602585,
        0.48007741322642794,
        -0.27138649553768307,
        0.0,
        0.4309491928842357,
        0.8745425879804001,
        0.22239167016992817,
        0.0,
        0.3441042658887407,
        0.06856339488652696,
        -0.9364247514236292,
        0.0,
        6.612369060516357,
        144.0,
        222.88072204589844,
        1.0
      ],
      "name": "Plane_3"
    },
    {
      "children": [12],
      "matrix": [
        1.0,
        3.400058012914543e-16,
        2.7755575615628914e-16,
        0.0,
        -3.400058012914543e-16,
        1.0,
        1.3877787807814457e-16,
        0.0,
        -2.7755575615628914e-16,
        -1.3877787807814467e-16,
        1.0,
        0.0,
        0.0,
        0.0,
        0.0,
        1.0
      ],
      "name": "Plane_3_2"
    },
    {
      "mesh": 2,
      "name": "Plane_3_2_Nuovo.1_0"
    },
    {
      "children": [14],
      "name": "Superficie_di_Suddivisione_3"
    },
    {
      "children": [15],
      "matrix": [
        0.8492340635010751,
        -0.1569158013601639,
        0.5041616176118027,
        0.0,
        0.5238464684964501,
        0.37014638665007404,
        -0.7671874151038269,
        0.0,
        -0.06622977301221539,
        0.9156249689329095,
        0.39654070841889477,
        0.0,
        164.3928680419922,
        266.8672180175781,
        218.39027404785156,
        1.0
      ],
      "name": "Plane_4"
    },
    {
      "children": [16],
      "matrix": [
        1.0,
        0.0,
        -2.7755575615628914e-17,
        0.0,
        7.70371977754894e-33,
        1.0,
        2.7755575615628904e-16,
        0.0,
        2.7755575615628914e-17,
        -2.7755575615628904e-16,
        1.0,
        0.0,
        0.0,
        0.0,
        0.0,
        1.0
      ],
      "name": "Plane_4_2"
    },
    {
      "mesh": 3,
      "name": "Plane_4_2_Nuovo.1_0"
    },
    {
      "children": [18],
      "name": "Superficie_di_Suddivisione_2"
    },
    {
      "children": [19],
      "matrix": [
        0.284425017683843,
        -0.9100216499550488,
        0.30160073927070596,
        0.0,
        -0.8382476227063688,
        -0.0833976180038094,
        0.5388745311651054,
        0.0,
        -0.46523470672625766,
        -0.40608550075616034,
        -0.7865438536616707,
        0.0,
        107.48393249511719,
        161.5683135986328,
        277.00604248046875,
        1.0
      ],
      "name": "Plane_5"
    },
    {
      "children": [20],
      "matrix": [
        1.0,
        1.6653345369377356e-16,
        5.551115123125785e-17,
        0.0,
        -1.665334536937735e-16,
        1.0,
        -4.440892098500627e-16,
        0.0,
        -5.551115123125793e-17,
        4.440892098500627e-16,
        1.0,
        0.0,
        0.0,
        0.0,
        0.0,
        1.0
      ],
      "name": "Plane_5_2"
    },
    {
      "mesh": 4,
      "name": "Plane_5_2_Nuovo.1_0"
    },
    {
      "children": [22],
      "name": "Superficie_di_Suddivisione_1"
    },
    {
      "children": [23],
      "matrix": [
        0.4916387632436642,
        -0.870799245794483,
        0.0,
        0.0,
        0.870799245794483,
        0.4916387632436642,
        0.0,
        0.0,
        0.0,
        0.0,
        1.0,
        0.0,
        123.10409545898438,
        50.82481002807617,
        258.21368408203125,
        1.0
      ],
      "name": "Plane_6"
    },
    {
      "mesh": 5,
      "name": "Plane_6_Nuovo.1_0"
    },
    {
      "children": [25],
      "name": "Superficie_di_Suddivisione"
    },
    {
      "children": [26],
      "matrix": [
        0.6836720940363115,
        0.47827857673312724,
        -0.5512187141907819,
        0.0,
        -0.2766655290104665,
        0.8687904499797166,
        0.41068155434764825,
        0.0,
        0.6753137440429918,
        -0.1282683010808821,
        0.7262909816626257,
        0.0,
        8.058788299560547,
        271.1632080078125,
        136.55812072753906,
        1.0
      ],
      "name": "Plane_7"
    },
    {
      "children": [27],
      "matrix": [
        1.0,
        -4.996003610813205e-16,
        -5.551115123125783e-17,
        0.0,
        4.996003610813205e-16,
        1.0,
        0.0,
        0.0,
        5.551115123125783e-17,
        -2.77333911991762e-32,
        1.0,
        0.0,
        0.0,
        0.0,
        0.0,
        1.0
      ],
      "name": "Plane_7_2"
    },
    {
      "mesh": 6,
      "name": "Plane_7_2_Nuovo.1_0"
    }
  ],
  "samplers": [
    {
      "magFilter": 9729,
      "minFilter": 9987,
      "wrapS": 10497,
      "wrapT": 10497
    }
  ],
  "scene": 0,
  "scenes": [
    {
      "name": "Sketchfab_Scene",
      "nodes": [0]
    }
  ],
  "textures": [
    {
      "sampler": 0,
      "source": 0
    },
    {
      "sampler": 0,
      "source": 1
    }
  ]
}
